<svg width="25" height="25" viewBox="0 0 25 25" fill="none" xmlns="http://www.w3.org/2000/svg">
<path d="M24.8588 6.75551C24.7127 6.54267 24.4748 6.41528 24.2212 6.41528H7.55734L6.29556 1.94869C5.8009 0.189467 4.62549 0 4.14339 0H0.779682C0.348619 0 0 0.358778 0 0.8006C0 1.24242 0.349404 1.6012 0.779682 1.6012H4.1426C4.24939 1.6012 4.57366 1.6012 4.79508 2.38648L9.13477 18.7621C9.22899 19.1072 9.53599 19.3458 9.8854 19.3458H20.4845C20.8135 19.3458 21.1072 19.1346 21.2179 18.8161L24.9538 7.48597C25.0401 7.24087 25.004 6.96756 24.858 6.75471L24.8588 6.75551ZM19.9365 17.7454H10.4782L7.99626 8.01729H23.1133L19.9365 17.7454ZM18.3897 20.9688C17.3053 20.9688 16.4267 21.871 16.4267 22.9844C16.4267 24.0978 17.3053 25 18.3897 25C19.474 25 20.3526 24.0978 20.3526 22.9844C20.3526 21.871 19.474 20.9688 18.3897 20.9688ZM11.3231 20.9688C10.2387 20.9688 9.36011 21.871 9.36011 22.9844C9.36011 24.0978 10.2387 25 11.3231 25C12.4074 25 13.286 24.0978 13.286 22.9844C13.286 21.871 12.4074 20.9688 11.3231 20.9688Z" fill="#B7B7B7"/>
</svg>
