<svg width="230" height="57" viewBox="0 0 230 57" fill="none" xmlns="http://www.w3.org/2000/svg">
<path d="M64.4102 22.8203H74.8633V37.9727H76.4102V44.0078H74.3828V40H63.0273V44.0078H61V37.9727H62.3359C63.7188 35.8867 64.4102 31.6719 64.4102 25.3281V22.8203ZM72.5898 24.8477H66.6016V25.7266C66.6016 27.1875 66.4688 29.1875 66.2031 31.7266C65.9453 34.2578 65.4336 36.3398 64.668 37.9727H72.5898V24.8477ZM79.1523 22.8203H81.2148V36.4258L90.3555 22.8203H92.6406V40H90.5781V26.4297L81.4258 40H79.1523V22.8203ZM96.4023 22.8203H98.6758V30.3438C99.7148 30.3438 100.445 30.1445 100.867 29.7461C101.289 29.3398 101.828 28.3711 102.484 26.8398C102.961 25.7148 103.352 24.9219 103.656 24.4609C103.969 23.9922 104.41 23.6016 104.98 23.2891C105.551 22.9688 106.18 22.8086 106.867 22.8086C107.742 22.8086 108.203 22.8164 108.25 22.832V24.8008C108.172 24.8008 108.02 24.7969 107.793 24.7891C107.543 24.7812 107.391 24.7773 107.336 24.7773C106.609 24.7773 106.07 24.9531 105.719 25.3047C105.359 25.6562 104.949 26.4062 104.488 27.5547C103.91 29.0078 103.422 29.9258 103.023 30.3086C102.625 30.6836 102.148 30.9844 101.594 31.2109C102.703 31.5156 103.797 32.5391 104.875 34.2812L108.414 40H105.59L102.719 35.3359C101.93 34.0469 101.27 33.1641 100.738 32.6875C100.207 32.2031 99.5195 31.9609 98.6758 31.9609V40H96.4023V22.8203ZM108.473 40L115.07 22.8203H117.52L124.551 40H121.961L119.957 34.7969H112.773L110.887 40H108.473ZM113.43 32.9453H119.254L117.461 28.1875C116.914 26.7422 116.508 25.5547 116.242 24.625C116.023 25.7266 115.715 26.8203 115.316 27.9062L113.43 32.9453ZM139.961 40H137.688V32.3711H135.051C134.465 32.3711 134.043 32.3984 133.785 32.4531C133.434 32.5391 133.086 32.6914 132.742 32.9102C132.406 33.1289 132.023 33.5117 131.594 34.0586C131.164 34.6055 130.617 35.3945 129.953 36.4258L127.68 40H124.82L127.809 35.3242C128.402 34.4102 129.031 33.6484 129.695 33.0391C130.008 32.7578 130.465 32.4727 131.066 32.1836C129.418 31.957 128.199 31.4258 127.41 30.5898C126.621 29.7539 126.227 28.7266 126.227 27.5078C126.227 26.5625 126.465 25.6992 126.941 24.918C127.418 24.1367 128.055 23.5938 128.852 23.2891C129.648 22.9766 130.812 22.8203 132.344 22.8203H139.961V40ZM137.688 30.4023V24.7188H132.25C130.977 24.7188 130.043 24.9805 129.449 25.5039C128.863 26.0273 128.57 26.6953 128.57 27.5078C128.57 28.0625 128.723 28.5781 129.027 29.0547C129.332 29.5234 129.777 29.8672 130.363 30.0859C130.949 30.2969 131.762 30.4023 132.801 30.4023H137.688ZM149.699 31.6328C149.699 28.7812 150.465 26.5508 151.996 24.9414C153.527 23.3242 155.504 22.5156 157.926 22.5156C159.512 22.5156 160.941 22.8945 162.215 23.6523C163.488 24.4102 164.457 25.4688 165.121 26.8281C165.793 28.1797 166.129 29.7148 166.129 31.4336C166.129 33.1758 165.777 34.7344 165.074 36.1094C164.371 37.4844 163.375 38.5273 162.086 39.2383C160.797 39.9414 159.406 40.293 157.914 40.293C156.297 40.293 154.852 39.9023 153.578 39.1211C152.305 38.3398 151.34 37.2734 150.684 35.9219C150.027 34.5703 149.699 33.1406 149.699 31.6328ZM152.043 31.668C152.043 33.7383 152.598 35.3711 153.707 36.5664C154.824 37.7539 156.223 38.3477 157.902 38.3477C159.613 38.3477 161.02 37.7461 162.121 36.543C163.23 35.3398 163.785 33.6328 163.785 31.4219C163.785 30.0234 163.547 28.8047 163.07 27.7656C162.602 26.7188 161.91 25.9102 160.996 25.3398C160.09 24.7617 159.07 24.4727 157.938 24.4727C156.328 24.4727 154.941 25.0273 153.777 26.1367C152.621 27.2383 152.043 29.082 152.043 31.668ZM166.246 40L172.891 31.0469L167.031 22.8203H169.738L172.855 27.2266C173.504 28.1406 173.965 28.8438 174.238 29.3359C174.621 28.7109 175.074 28.0586 175.598 27.3789L179.055 22.8203H181.527L175.492 30.918L181.996 40H179.184L174.859 33.8711C174.617 33.5195 174.367 33.1367 174.109 32.7227C173.727 33.3477 173.453 33.7773 173.289 34.0117L168.977 40H166.246ZM182.512 31.6328C182.512 28.7812 183.277 26.5508 184.809 24.9414C186.34 23.3242 188.316 22.5156 190.738 22.5156C192.324 22.5156 193.754 22.8945 195.027 23.6523C196.301 24.4102 197.27 25.4688 197.934 26.8281C198.605 28.1797 198.941 29.7148 198.941 31.4336C198.941 33.1758 198.59 34.7344 197.887 36.1094C197.184 37.4844 196.188 38.5273 194.898 39.2383C193.609 39.9414 192.219 40.293 190.727 40.293C189.109 40.293 187.664 39.9023 186.391 39.1211C185.117 38.3398 184.152 37.2734 183.496 35.9219C182.84 34.5703 182.512 33.1406 182.512 31.6328ZM184.855 31.668C184.855 33.7383 185.41 35.3711 186.52 36.5664C187.637 37.7539 189.035 38.3477 190.715 38.3477C192.426 38.3477 193.832 37.7461 194.934 36.543C196.043 35.3398 196.598 33.6328 196.598 31.4219C196.598 30.0234 196.359 28.8047 195.883 27.7656C195.414 26.7188 194.723 25.9102 193.809 25.3398C192.902 24.7617 191.883 24.4727 190.75 24.4727C189.141 24.4727 187.754 25.0273 186.59 26.1367C185.434 27.2383 184.855 29.082 184.855 31.668ZM206.254 40V24.8477H200.594V22.8203H214.211V24.8477H208.527V40H206.254ZM213.871 40L220.469 22.8203H222.918L229.949 40H227.359L225.355 34.7969H218.172L216.285 40H213.871ZM218.828 32.9453H224.652L222.859 28.1875C222.312 26.7422 221.906 25.5547 221.641 24.625C221.422 25.7266 221.113 26.8203 220.715 27.9062L218.828 32.9453Z" fill="black"/>
<path d="M25.848 27.472L22.704 36.28H17.256L25.824 19.36L34.416 36.28H28.968L25.848 27.472ZM31.008 37H20.664V39.64H15.96V33.04H35.712V39.64H31.008V37Z" fill="#AD120E"/>
<path d="M25.8782 39.77C26.3483 42.1361 26.0943 44.589 25.1494 46.8086C24.2045 49.0282 22.6125 50.9115 20.5812 52.2127C18.5499 53.514 16.1736 54.1728 13.7622 54.1033C11.3509 54.0337 9.01648 53.239 7.06357 51.8228C5.11065 50.4066 3.62991 48.4347 2.81451 46.1643C1.99912 43.894 1.88694 41.4305 2.4926 39.0955C3.09826 36.7604 4.39364 34.662 6.20975 33.0742C8.02587 31.4864 10.2784 30.4828 12.6734 30.1943L14.1082 42.1083L25.8782 39.77Z" fill="#AD120E"/>
<path d="M35.3701 28.8365C37.6559 28.0652 40.121 28.0008 42.4439 28.6516C44.7668 29.3024 46.8397 30.6382 48.392 32.4847C49.9444 34.3312 50.9041 36.6028 51.1461 39.003C51.3881 41.4032 50.901 43.8206 49.7485 45.9398C48.596 48.059 46.8315 49.7817 44.6852 50.883C42.539 51.9844 40.1106 52.4133 37.7169 52.1138C35.3232 51.8143 33.0753 50.8004 31.2666 49.2042C29.4578 47.608 28.1721 45.5037 27.5772 43.1658L39.2066 40.2067L35.3701 28.8365Z" fill="#AD120E"/>
<path d="M17.3278 26.205C15.4526 24.6873 14.0784 22.6398 13.3844 20.3294C12.6904 18.019 12.7088 15.5531 13.4373 13.2534C14.1657 10.9536 15.5704 8.92686 17.4681 7.43744C19.3657 5.94802 21.6683 5.06512 24.0752 4.90393C26.4822 4.74274 28.8819 5.31074 30.9612 6.53383C33.0405 7.75692 34.7029 9.5783 35.7315 11.7604C36.7601 13.9424 37.1072 16.3839 36.7274 18.7661C36.3477 21.1484 35.2587 23.3609 33.6027 25.115L24.877 16.8771L17.3278 26.205Z" fill="#AD120E"/>
</svg>
