<svg width="25" height="25" viewBox="0 0 25 25" fill="none" xmlns="http://www.w3.org/2000/svg">
<path d="M24.0754 25H0.776627C0.347929 25 0 24.65 0 24.2188C0 23.7875 0.347929 23.4375 0.776627 23.4375H24.0754C24.5041 23.4375 24.8521 23.7875 24.8521 24.2188C24.8521 24.65 24.5041 25 24.0754 25Z" fill="#B7B7B7"/>
<path d="M7.5255 19.1672C7.5255 20.6625 6.32017 21.875 4.83371 21.875H2.83894C1.35248 21.875 0.147156 20.6625 0.147156 19.1672V11.3016C0.147544 9.80625 1.35287 8.59375 2.83933 8.59375H4.8341C6.32056 8.59375 7.52588 9.80625 7.52588 11.3016L7.5255 19.1672ZM5.97224 11.3016C5.97224 10.6691 5.46239 10.1562 4.83371 10.1562H2.83894C2.21026 10.1562 1.70041 10.6691 1.70041 11.3016V19.1676C1.7008 19.8 2.21065 20.3125 2.83933 20.3125H4.8341C5.46278 20.3125 5.97263 19.7996 5.97263 19.1672L5.97224 11.3016Z" fill="#B7B7B7"/>
<path d="M16.4567 19.1672C16.4567 20.6625 15.2514 21.875 13.7649 21.875H11.7702C10.2837 21.875 9.07837 20.6625 9.07837 19.1672V7.00469C9.07837 5.50937 10.2837 4.29688 11.7702 4.29688H13.7649C15.2514 4.29688 16.4567 5.50937 16.4567 7.00469V19.1672ZM14.9035 7.00469C14.9035 6.37227 14.3936 5.85938 13.7649 5.85938H11.7702C11.1415 5.85938 10.6316 6.37227 10.6316 7.00469V19.1676C10.6316 19.8 11.1415 20.3129 11.7702 20.3129H13.7649C14.3936 20.3129 14.9035 19.8 14.9035 19.1676V7.00469Z" fill="#B7B7B7"/>
<path d="M20.2661 5.85938C20.0513 5.85938 19.9515 5.68477 19.9515 5.46875V3.11016C19.9515 2.34375 20.5771 2.34375 20.8315 2.34375H21.7455C21.9599 2.34375 22.1339 2.51836 22.1339 2.73438C22.1339 2.95039 21.9599 3.125 21.7455 3.125H20.8315C20.701 3.125 20.6253 3.13125 20.5814 3.13867L20.6175 5.46875C20.6175 5.68477 20.4804 5.85938 20.2661 5.85938Z" fill="#B7B7B7"/>
<path d="M20.1923 6.71091C20.0909 6.71091 19.99 6.66794 19.9166 6.59763C19.8463 6.5238 19.804 6.42185 19.804 6.32029C19.804 6.21872 19.8463 6.11716 19.9166 6.04294C20.0641 5.89451 20.3243 5.89841 20.468 6.04294C20.5379 6.11716 20.5806 6.21482 20.5806 6.32029C20.5806 6.42185 20.5379 6.5238 20.468 6.59763C20.3938 6.66755 20.2928 6.71091 20.1923 6.71091Z" fill="#B7B7B7"/>
<path d="M24.9996 19.1672C24.9996 20.6625 23.7943 21.875 22.3078 21.875H20.3131C18.8266 21.875 17.6213 20.6625 17.6213 19.1672V2.70781C17.6217 1.2125 18.827 0 20.3135 0H22.3082C23.7947 0 25 1.2125 25 2.70781L24.9996 19.1672ZM23.4464 2.70781C23.4464 2.07539 22.9369 1.5625 22.3082 1.5625H20.3135C19.6848 1.5625 19.1749 2.07539 19.1749 2.70781V19.1676C19.1749 19.8 19.6848 20.3129 20.3135 20.3129H22.3082C22.9369 20.3129 23.4468 19.8 23.4468 19.1676L23.4464 2.70781Z" fill="#B7B7B7"/>
</svg>
