<svg width="32" height="22" viewBox="0 0 32 22" fill="none" xmlns="http://www.w3.org/2000/svg">
<path fill-rule="evenodd" clip-rule="evenodd" d="M12.696 14.692L12.695 6.11658L21.341 10.4191L12.696 14.692ZM31.68 4.63059C31.68 4.63059 31.367 2.52752 30.408 1.6014C29.191 0.385333 27.827 0.379599 27.202 0.30902C22.724 -4.4783e-06 16.007 0 16.007 0H15.993C15.993 0 9.276 -4.4783e-06 4.798 0.30902C4.172 0.379599 2.809 0.385333 1.591 1.6014C0.632003 2.52752 0.319997 4.63059 0.319997 4.63059C0.319997 4.63059 0 7.10087 0 9.5702V11.886C0 14.3563 0.319997 16.8256 0.319997 16.8256C0.319997 16.8256 0.632003 18.9287 1.591 19.8548C2.809 21.0709 4.408 21.0327 5.12 21.1596C7.68 21.3942 16 21.4667 16 21.4667C16 21.4667 22.724 21.4571 27.202 21.1481C27.827 21.0766 29.191 21.0709 30.408 19.8548C31.367 18.9287 31.68 16.8256 31.68 16.8256C31.68 16.8256 32 14.3563 32 11.886V9.5702C32 7.10087 31.68 4.63059 31.68 4.63059Z" fill="#CE1312"/>
</svg>
