<svg width="32" height="32" viewBox="0 0 32 32" fill="none" xmlns="http://www.w3.org/2000/svg">
<g clip-path="url(#clip0_3_563)">
<path d="M16 0C7.16337 0 0 7.16337 0 16C0 24.8366 7.16337 32 16 32C24.8366 32 32 24.8366 32 16C32 7.16337 24.8366 0 16 0Z" fill="#40B3E0"/>
<path d="M23.7853 9.20363L20.9276 23.612C20.9276 23.612 20.528 24.6113 19.4288 24.1316L12.8341 19.0756L10.4361 17.9166L6.39932 16.5576C6.39932 16.5576 5.77982 16.3379 5.71982 15.8583C5.65995 15.3786 6.41932 15.1189 6.41932 15.1189L22.4663 8.82388C22.4663 8.82388 23.7853 8.24438 23.7853 9.20363Z" fill="white"/>
<path d="M12.3272 23.4505C12.3272 23.4505 12.1347 23.4325 11.8948 22.673C11.6551 21.9136 10.4361 17.9168 10.4361 17.9168L20.1282 11.7618C20.1282 11.7618 20.6878 11.4221 20.6678 11.7618C20.6678 11.7618 20.7677 11.8217 20.468 12.1015C20.1682 12.3813 12.8541 18.956 12.8541 18.956" fill="#D2E5F1"/>
<path d="M15.3627 21.0143L12.7542 23.3926C12.7542 23.3926 12.5503 23.5473 12.3272 23.4503L12.8267 19.0327" fill="#B5CFE4"/>
</g>
<defs>
<clipPath id="clip0_3_563">
<rect width="32" height="32" fill="white"/>
</clipPath>
</defs>
</svg>
