<svg width="32" height="32" viewBox="0 0 32 32" fill="none" xmlns="http://www.w3.org/2000/svg">
<g clip-path="url(#clip0_3_556)">
<path d="M27.2 0H4.8C2.14903 0 0 2.14903 0 4.8V27.2C0 29.851 2.14903 32 4.8 32H27.2C29.851 32 32 29.851 32 27.2V4.8C32 2.14903 29.851 0 27.2 0Z" fill="#5281B8"/>
<path d="M17.125 22.6877C17.4375 22.6252 18 22.5002 18 21.7502C18 21.7502 17.9375 19.8752 18.8125 19.6252C19.6875 19.3752 20.8125 21.4377 22 22.2502C22.875 22.8127 23.5625 22.7502 23.5625 22.7502L26.75 22.6877C26.75 22.6877 28.375 22.5627 27.625 21.2502C27.5625 21.1252 27.0625 20.3127 25.1875 18.6252C23.25 16.7502 23.5625 17.0627 25.875 13.8752C27.3125 11.9377 27.9375 10.7502 27.75 10.3127C27.5 9.87518 26.5 9.93768 26.5 9.93768H22.9375C22.5625 9.93768 22.375 10.0002 22.1875 10.3127C22.1875 10.3127 21.625 11.8752 20.875 13.1252C19.3125 15.8127 18.6875 15.9377 18.375 15.7502C17.8125 15.4377 17.9375 14.2502 17.9375 13.4377C17.9375 10.6252 18.375 9.62518 17.125 9.37518C16.3125 9.25018 13.4375 9.12518 12.5625 9.56268C12.125 9.81268 11.875 10.2502 12.0625 10.3127C12.25 10.3127 12.8125 10.3752 13.125 10.7502C13.625 11.5627 13.6875 15.4377 13 15.8127C12.0625 16.5002 9.6875 11.9377 9.125 10.4377C9 10.0627 8.8125 10.0002 8.375 9.87518H4.9375C4.5625 9.87518 4 9.93768 4.25 10.6877C5.9375 14.1877 9.4375 22.7502 15.75 22.6877H17.125Z" fill="white"/>
</g>
<defs>
<clipPath id="clip0_3_556">
<rect width="32" height="32" fill="white"/>
</clipPath>
</defs>
</svg>
